<svg width="1545" height="365" viewBox="0 0 1545 365" fill="none" xmlns="http://www.w3.org/2000/svg">
<path fill-rule="evenodd" clip-rule="evenodd" d="M0 122.875L64.375 94.8543C128.75 66.8335 257.5 10.7919 386.25 1.45164C515 -7.88863 643.75 29.4725 772.5 66.8335C901.25 104.195 1030 141.556 1158.75 132.215C1287.5 122.875 1416.25 66.8335 1480.63 38.8127L1545 10.7919V291H1480.63C1416.25 291 1287.5 291 1158.75 291C1030 291 901.25 291 772.5 291C643.75 291 515 291 386.25 291C257.5 291 128.75 291 64.375 291H0V122.875Z" fill="#F7CAA5"/>
<path fill-rule="evenodd" clip-rule="evenodd" d="M0 168.852L64.375 142.661C128.75 116.47 257.5 64.0873 386.25 55.3569C515 46.6264 643.75 81.5481 772.5 116.47C901.25 151.392 1030 186.313 1158.75 177.583C1287.5 168.852 1416.25 116.47 1480.63 90.2786L1545 64.0873V326H1480.63C1416.25 326 1287.5 326 1158.75 326C1030 326 901.25 326 772.5 326C643.75 326 515 326 386.25 326C257.5 326 128.75 326 64.375 326H0V168.852Z" fill="#FBB67E"/>
<path fill-rule="evenodd" clip-rule="evenodd" d="M0 216.519L64.375 191.772C128.75 167.025 257.5 117.531 386.25 109.282C515 101.033 643.75 134.029 772.5 167.025C901.25 200.021 1030 233.017 1158.75 224.768C1287.5 216.519 1416.25 167.025 1480.63 142.278L1545 117.531V365H1480.63C1416.25 365 1287.5 365 1158.75 365C1030 365 901.25 365 772.5 365C643.75 365 515 365 386.25 365C257.5 365 128.75 365 64.375 365H0V216.519Z" fill="#EF9D59"/>
</svg>





